<svg xmlns="http://www.w3.org/2000/svg" xmlns:xlink="http://www.w3.org/1999/xlink" width="150" zoomAndPan="magnify" viewBox="0 0 112.5 44.999999" height="60" preserveAspectRatio="xMidYMid meet" version="1.0"><defs><g/></defs><g fill="#8750f7" fill-opacity="1"><g transform="translate(9.316127, 27.726768)"><g><path d="M 4.9375 0.25 C 3.863281 0.25 2.851562 0.160156 1.90625 -0.015625 L 1.90625 -13.3125 C 2.78125 -13.414062 3.796875 -13.46875 4.953125 -13.46875 C 6.109375 -13.46875 7.15625 -13.3125 8.09375 -13 C 9.03125 -12.6875 9.8125 -12.238281 10.4375 -11.65625 C 11.707031 -10.488281 12.34375 -8.851562 12.34375 -6.75 C 12.34375 -4.394531 11.632812 -2.609375 10.21875 -1.390625 C 8.945312 -0.296875 7.1875 0.25 4.9375 0.25 Z M 4.484375 -2.171875 C 4.910156 -2.097656 5.335938 -2.0625 5.765625 -2.0625 C 6.203125 -2.0625 6.664062 -2.144531 7.15625 -2.3125 C 7.65625 -2.476562 8.085938 -2.742188 8.453125 -3.109375 C 9.242188 -3.859375 9.640625 -4.957031 9.640625 -6.40625 C 9.640625 -8.78125 8.769531 -10.238281 7.03125 -10.78125 C 6.46875 -10.957031 5.8125 -11.046875 5.0625 -11.046875 L 4.796875 -11.046875 C 4.691406 -11.046875 4.585938 -11.039062 4.484375 -11.03125 Z M 4.484375 -2.171875 "/></g></g></g><g fill="#8750f7" fill-opacity="1"><g transform="translate(22.875362, 27.726768)"><g><path d="M 8.359375 -2.390625 C 8.773438 -2.390625 9.0625 -2.425781 9.21875 -2.5 L 9.25 -2.5 L 9.15625 0 L 1.703125 0 L 1.703125 -13.296875 C 1.890625 -13.273438 2.09375 -13.265625 2.3125 -13.265625 L 3 -13.234375 C 3.46875 -13.222656 3.972656 -13.21875 4.515625 -13.21875 C 6.035156 -13.21875 7.535156 -13.242188 9.015625 -13.296875 C 8.941406 -12.710938 8.90625 -11.9375 8.90625 -10.96875 C 8.90625 -10.863281 8.910156 -10.78125 8.921875 -10.71875 L 8.90625 -10.703125 C 8.5625 -10.796875 8.070312 -10.84375 7.4375 -10.84375 L 4.296875 -10.84375 L 4.296875 -8.3125 L 6.65625 -8.3125 C 7.382812 -8.3125 7.820312 -8.332031 7.96875 -8.375 L 8 -5.921875 C 7.6875 -5.953125 7.273438 -5.96875 6.765625 -5.96875 L 4.296875 -5.96875 L 4.296875 -2.390625 Z M 8.359375 -2.390625 "/></g></g></g><g fill="#8750f7" fill-opacity="1"><g transform="translate(33.074611, 27.726768)"><g><path d="M 7.359375 0.046875 C 7.148438 0.015625 6.804688 0 6.328125 0 L 5.234375 0 C 5.046875 0 4.878906 0.00390625 4.734375 0.015625 L 4.734375 0 C 4.753906 -0.0390625 4.765625 -0.09375 4.765625 -0.15625 C 4.765625 -0.21875 4.757812 -0.28125 4.75 -0.34375 C 4.738281 -0.414062 4.710938 -0.535156 4.671875 -0.703125 C 4.628906 -0.878906 4.554688 -1.128906 4.453125 -1.453125 L 4.03125 -2.78125 L 0.34375 -13.265625 C 0.75 -13.234375 1.269531 -13.21875 1.90625 -13.21875 C 2.539062 -13.21875 2.945312 -13.242188 3.125 -13.296875 L 6.125 -4.265625 L 8.75 -13.265625 C 9.144531 -13.234375 9.632812 -13.21875 10.21875 -13.21875 C 11.007812 -13.21875 11.472656 -13.242188 11.609375 -13.296875 L 7.984375 -2.8125 C 7.984375 -2.8125 7.867188 -2.425781 7.640625 -1.65625 C 7.441406 -0.988281 7.34375 -0.554688 7.34375 -0.359375 C 7.34375 -0.160156 7.359375 -0.0351562 7.390625 0.015625 Z M 7.359375 0.046875 "/></g></g></g><g fill="#ffffff" fill-opacity="1"><g transform="translate(44.935163, 27.726768)"><g><path d="M 9.6875 -12.484375 L 9.5 -9.5625 L 9.4375 -9.546875 C 8.945312 -10.273438 8.109375 -10.75 6.921875 -10.96875 C 6.554688 -11.039062 6.203125 -11.078125 5.859375 -11.078125 C 5.515625 -11.078125 5.222656 -11.046875 4.984375 -10.984375 C 4.742188 -10.929688 4.535156 -10.847656 4.359375 -10.734375 C 3.992188 -10.492188 3.8125 -10.179688 3.8125 -9.796875 C 3.8125 -9.296875 3.972656 -8.921875 4.296875 -8.671875 C 4.691406 -8.367188 5.347656 -8.15625 6.265625 -8.03125 C 7.191406 -7.90625 7.929688 -7.734375 8.484375 -7.515625 C 9.046875 -7.304688 9.503906 -7.039062 9.859375 -6.71875 C 10.535156 -6.113281 10.875 -5.253906 10.875 -4.140625 C 10.875 -2.679688 10.320312 -1.554688 9.21875 -0.765625 C 8.28125 -0.0859375 7.097656 0.25 5.671875 0.25 C 4.515625 0.25 3.375 0.03125 2.25 -0.40625 C 1.875 -0.550781 1.546875 -0.722656 1.265625 -0.921875 L 1.375 -4.234375 L 1.421875 -4.265625 C 2.242188 -2.847656 3.59375 -2.140625 5.46875 -2.140625 C 6.800781 -2.140625 7.679688 -2.460938 8.109375 -3.109375 C 8.253906 -3.316406 8.328125 -3.554688 8.328125 -3.828125 C 8.328125 -4.097656 8.285156 -4.320312 8.203125 -4.5 C 8.117188 -4.675781 7.976562 -4.828125 7.78125 -4.953125 C 7.394531 -5.203125 6.742188 -5.367188 5.828125 -5.453125 C 4.921875 -5.546875 4.179688 -5.707031 3.609375 -5.9375 C 3.035156 -6.175781 2.578125 -6.472656 2.234375 -6.828125 C 1.609375 -7.460938 1.296875 -8.351562 1.296875 -9.5 C 1.296875 -10.675781 1.707031 -11.628906 2.53125 -12.359375 C 3.375 -13.097656 4.507812 -13.46875 5.9375 -13.46875 C 7.363281 -13.46875 8.613281 -13.140625 9.6875 -12.484375 Z M 9.6875 -12.484375 "/></g></g></g><g fill="#ffffff" fill-opacity="1"><g transform="translate(56.794529, 27.726768)"><g><path d="M 4.390625 0.0625 C 4.078125 0.0195312 3.46875 0 2.5625 0 L 1.765625 0 L 1.765625 -13.265625 C 2.179688 -13.234375 2.644531 -13.21875 3.15625 -13.21875 C 3.664062 -13.21875 4.03125 -13.242188 4.25 -13.296875 L 7.578125 -7.625 L 10.796875 -13.296875 C 11.003906 -13.242188 11.40625 -13.21875 12 -13.21875 C 12.601562 -13.21875 13.117188 -13.234375 13.546875 -13.265625 L 13.546875 0 L 12.75 0 C 11.832031 0 11.21875 0.0195312 10.90625 0.0625 L 10.90625 -8.84375 L 7.65625 -3.03125 L 4.390625 -8.375 Z M 4.390625 0.0625 "/></g></g></g><g fill="#ffffff" fill-opacity="1"><g transform="translate(72.093408, 27.726768)"><g><path d="M 2.015625 -13.265625 C 2.679688 -13.234375 3.082031 -13.21875 3.21875 -13.21875 L 3.9375 -13.21875 C 4.289062 -13.21875 4.570312 -13.242188 4.78125 -13.296875 L 4.765625 0 L 2.015625 0 Z M 2.015625 -13.265625 "/></g></g></g><g fill="#ffffff" fill-opacity="1"><g transform="translate(78.892907, 27.726768)"><g><path d="M 6.484375 0.0625 C 6.160156 0.0195312 5.34375 0 4.03125 0 L 3.703125 0 L 3.703125 -11 L 1.734375 -11 C 1.148438 -11 0.804688 -10.96875 0.703125 -10.90625 C 0.597656 -10.84375 0.515625 -10.789062 0.453125 -10.75 L 0.421875 -10.75 L 0.421875 -13.296875 L 0.453125 -13.328125 C 0.671875 -13.253906 1.265625 -13.21875 2.234375 -13.21875 L 8.453125 -13.21875 C 9.035156 -13.21875 9.378906 -13.25 9.484375 -13.3125 C 9.597656 -13.375 9.6875 -13.425781 9.75 -13.46875 L 9.765625 -13.453125 L 9.765625 -10.921875 L 9.75 -10.890625 C 9.53125 -10.960938 8.9375 -11 7.96875 -11 L 6.484375 -11 Z M 6.484375 0.0625 "/></g></g></g><g fill="#ffffff" fill-opacity="1"><g transform="translate(89.092156, 27.726768)"><g><path d="M 4.390625 0.0625 C 3.753906 0.0195312 3 0 2.125 0 L 1.8125 0 L 1.8125 -13.265625 C 2.21875 -13.234375 2.507812 -13.21875 2.6875 -13.21875 L 3.09375 -13.21875 C 3.613281 -13.21875 4.046875 -13.242188 4.390625 -13.296875 L 4.390625 -8 L 9.0625 -8 L 9.0625 -13.265625 C 9.613281 -13.234375 10.148438 -13.21875 10.671875 -13.21875 C 11.191406 -13.21875 11.519531 -13.242188 11.65625 -13.296875 L 11.65625 0.0625 C 11.332031 0.0195312 10.703125 0 9.765625 0 L 9.0625 0 L 9.0625 -5.609375 L 4.390625 -5.609375 Z M 4.390625 0.0625 "/></g></g></g><g fill="#ffffff" fill-opacity="1"><g transform="translate(98.122911, 36.197611)"><g><path d="M 12.75 -10.9375 L 12.75 -13.453125 C 12.75 -13.640625 12.625 -13.765625 12.421875 -13.765625 L 12.109375 -13.765625 C 10.375 -13.765625 8.96875 -15.1875 8.96875 -16.90625 L 8.96875 -25.53125 C 8.96875 -28.984375 6.140625 -31.8125 2.671875 -31.8125 L 2.28125 -31.8125 C 2.046875 -31.8125 1.890625 -31.65625 1.890625 -31.421875 L 1.890625 -29.0625 C 1.890625 -28.828125 2.046875 -28.671875 2.28125 -28.671875 L 2.671875 -28.671875 C 4.40625 -28.671875 5.828125 -27.25 5.828125 -25.53125 L 5.828125 -16.90625 C 5.828125 -15.0625 6.6875 -13.296875 8.1875 -12.1875 C 6.6875 -11.09375 5.828125 -9.328125 5.828125 -7.46875 L 5.828125 0.390625 C 5.828125 2.125 4.40625 3.546875 2.671875 3.546875 L 2.28125 3.546875 C 2.046875 3.546875 1.890625 3.703125 1.890625 3.9375 L 1.890625 6.296875 C 1.890625 6.53125 2.046875 6.6875 2.28125 6.6875 L 2.671875 6.6875 C 6.140625 6.6875 8.96875 3.859375 8.96875 0.390625 L 8.96875 -7.46875 C 8.96875 -9.203125 10.375 -10.625 12.109375 -10.625 L 12.421875 -10.625 C 12.625 -10.625 12.75 -10.734375 12.75 -10.9375 Z M 12.75 -10.9375 "/></g></g></g><g fill="#ffffff" fill-opacity="1"><g transform="translate(-2.837121, 36.197611)"><g><path d="M 2.203125 -10.625 L 2.515625 -10.625 C 4.25 -10.625 5.65625 -9.203125 5.65625 -7.46875 L 5.65625 0.390625 C 5.65625 3.859375 8.5 6.6875 11.953125 6.6875 L 12.34375 6.6875 C 12.578125 6.6875 12.75 6.53125 12.75 6.296875 L 12.75 3.9375 C 12.75 3.703125 12.578125 3.546875 12.34375 3.546875 L 11.953125 3.546875 C 10.21875 3.546875 8.8125 2.125 8.8125 0.390625 L 8.8125 -7.46875 C 8.8125 -9.328125 7.9375 -11.09375 6.453125 -12.1875 C 7.9375 -13.296875 8.8125 -15.0625 8.8125 -16.90625 L 8.8125 -25.53125 C 8.8125 -27.25 10.21875 -28.671875 11.953125 -28.671875 L 12.34375 -28.671875 C 12.578125 -28.671875 12.75 -28.828125 12.75 -29.0625 L 12.75 -31.421875 C 12.75 -31.65625 12.578125 -31.8125 12.34375 -31.8125 L 11.953125 -31.8125 C 8.5 -31.8125 5.65625 -28.984375 5.65625 -25.53125 L 5.65625 -16.90625 C 5.65625 -15.1875 4.25 -13.765625 2.515625 -13.765625 L 2.203125 -13.765625 C 2 -13.765625 1.890625 -13.640625 1.890625 -13.453125 L 1.890625 -10.9375 C 1.890625 -10.734375 2 -10.625 2.203125 -10.625 Z M 2.203125 -10.625 "/></g></g></g></svg>